inDegrees=yes
name=ik_lifting_orientations
DataType=double
version=3
OpenSimVersion=4.5-2024-01-10-34fd6af
endheader
time	pelvis_tilt	pelvis_list	pelvis_rotation	pelvis_tx	pelvis_ty	pelvis_tz	hip_flexion_r	hip_adduction_r	hip_rotation_r	knee_angle_r	knee_angle_r_beta	ankle_angle_r	subtalar_angle_r	mtp_angle_r	hip_flexion_l	hip_adduction_l	hip_rotation_l	knee_angle_l	knee_angle_l_beta	ankle_angle_l	subtalar_angle_l	mtp_angle_l	lumbar_extension	lumbar_bending	lumbar_rotation	arm_flex_r	arm_add_r	arm_rot_r	elbow_flex_r	pro_sup_r	wrist_flex_r	wrist_dev_r	arm_flex_l	arm_add_l	arm_rot_l	elbow_flex_l	pro_sup_l	wrist_flex_l	wrist_dev_l
0.02	0.005239882381533191	0.009213128313391761	-90.02845989777977	0	0.9399999998679526	0	45.54599175738745	-13.81414079390598	0	61.21211554959596	1.068352958451668	-7.054492752922521	0	0	45.54599175738745	-13.81414079390598	0	61.21211554959596	1.068352958451668	-7.054492752922521	0	0	0.003842081362954891	0.006035054482180317	0.01852751858722202	-0.1996096109858934	-0.06246024139927909	-0.01025931396625791	0.4357518619248085	1.447741972367594	0	0	0	-9.189792344365848	0	88.60194011966026	1.447741972367594	0	0
0.03	0.002711146190678205	0.0123503826389665	-90.02369492427967	0	0.9399999998679526	0	45.53490967178501	-13.5820608044357	0	61.19258545552165	1.068012094006847	-6.901280543048902	0	0	45.53490967178501	-13.5820608044357	0	61.19258545552165	1.068012094006847	-6.901280543048902	0	0	0.03224550635757339	-0.005938884383145081	-0.0560432875568569	-0.3296447995353892	-0.08927588335924397	0.0847215885740157	0.596340133507176	1.426874613222201	0	0	0	-9.252314947630529	0	88.62208860174938	1.426874613222201	0	0
0.04	-0.004914266144855119	0.06613140508972459	-90.02492891673667	0	0.9399999998679526	0	45.52145160599786	-13.30525130217517	0	61.16882880050639	1.06759746215757	-6.719863330125939	0	0	45.52145160599786	-13.30525130217517	0	61.16882880050639	1.06759746215757	-6.719863330125939	0	0	0.03168966479172236	-0.01176425190791821	-0.1164814790211329	-0.2756133864095881	-0.1076576419456861	0.1858233291213359	0.6135292200872351	1.4014754678129	0	0	0	-9.328519928125402	0	88.64661275555217	1.4014754678129	0	0
0.05	0.006652031065531555	0.05911589908809095	-90.03807839743469	0	0.9399999998679526	0	45.52139455104668	-13.30398085756794	0	61.16872829502902	1.067595708006074	-6.719004993049239	0	0	45.52139455104668	-13.30398085756794	0	61.16872829502902	1.067595708006074	-6.719004993049239	0	0	0.02146147836585762	-0.01807402976255914	-0.09111634887917	-0.2555946874776943	-0.1459725431688955	0.3660466397501785	0.4275617796659085	1.401368713159819	0	0	0	-9.32883874504623	0	88.6467158324426	1.401368713159819	0	0
0.06	0.00581796817381151	0.1112815202079107	-89.91853879126209	0	0.9399999998679526	0	45.52132937348875	-13.3025346397516	0	61.16861317164697	1.067593698724011	-6.718028563138922	0	0	45.52132937348875	-13.3025346397516	0	61.16861317164697	1.067593698724011	-6.718028563138922	0	0	0.06157022347860631	-0.01397455490340199	-0.1944723227209748	-0.2670469976548447	-0.1828601555512168	0.4437463465018972	0.3752206378890459	1.401246631282868	0	0	0	-9.32920365915313	0	88.64683370853483	1.401246631282868	0	0
0.07000000000000001	-0.01178736714487316	0.1922719008417211	-89.78129251431375	0	0.9399999998679526	0	45.52121870426821	-13.30006748047487	0	61.1684184680294	1.067590300504819	-6.716361515904694	0	0	45.52121870426821	-13.30006748047487	0	61.1684184680294	1.067590300504819	-6.716361515904694	0	0	0.008669903511486528	-0.01019304407511253	-0.4128071033513852	-0.1931680978140775	-0.360648892005968	0.8145754040057017	0.3112796472998434	1.40103965036996	0	0	0	-9.329821564014573	0	88.64703355882314	1.40103965036996	0	0
0.08	-0.005981377785650231	0.3224121421665639	-89.65432020640269	0	0.9399999998679526	0	45.52112521789265	-13.29798584879091	0	61.16825389896987	1.067587428232883	-6.714955428635637	0	0	45.52112521789265	-13.29798584879091	0	61.16825389896987	1.067587428232883	-6.714955428635637	0	0	-0.0334838508053096	-0.003399569879973836	-0.480663150116719	-0.03879235196872718	-0.518110330147093	1.033931706044112	0.3031554724352183	1.400864758976273	0	0	0	-9.330343781329971	0	88.6472024251005	1.400864758976273	0	0
0.09	-0.01327842924075572	0.4407382975552716	-89.52803166359334	0	0.9399999998679526	0	45.52103551070511	-13.29598959270804	0	61.1680959588257	1.067584671657346	-6.713607300246077	0	0	45.52103551070511	-13.29598959270804	0	61.1680959588257	1.067584671657346	-6.713607300246077	0	0	-0.04733852446676709	0.0135828631216137	-0.5394962007380282	0.06708248454471291	-0.6354850097172919	1.114552020778894	0.2857263895808791	1.40069692107829	0	0	0	-9.330844971406897	0	88.6473644808809	1.40069692107829	0	0
0.1	-0.03002373973807299	0.5654717853713186	-89.391182138264	0	0.9399999998679526	0	45.52089158287695	-13.29278140974065	0	61.16784299065613	1.067580256529885	-6.711440309204509	0	0	45.52089158287695	-13.29278140974065	0	61.16784299065613	1.067580256529885	-6.711440309204509	0	0	-0.06260525590350147	0.03989989845551006	-0.6255930314452229	0.2171743026471917	-0.6632707209861729	1.390057515108013	0.2484183053290491	1.400427804149571	0	0	0	-9.331648170329498	0	88.64762432655563	1.400427804149571	0	0
